<svg xmlns="http://www.w3.org/2000/svg" viewBox="0 0 64 64" fill="none">
  <!-- Shield shape -->
  <path d="M32 2L6 14v18c0 15.2 11.08 29.4 26 34 14.92-4.6 26-18.8 26-34V14L32 2z" fill="#0f2140"/>
  <path d="M32 5L9 16v16c0 13.8 10.04 26.7 23 30.8C44.96 58.7 55 45.8 55 32V16L32 5z" fill="#0a1628" stroke="#1e3a5f" stroke-width="1"/>
  <!-- Stylized wing -->
  <path d="M16 30c4-2 10-4 16-3 6 1 12 5 16 10" stroke="#38bdf8" stroke-width="2.5" stroke-linecap="round" fill="none" opacity="0.5"/>
  <!-- Bold checkmark -->
  <path d="M20 33l8 9 16-19" stroke="#38bdf8" stroke-width="4.5" stroke-linecap="round" stroke-linejoin="round" fill="none"/>
</svg>
